<svg xmlns="http://www.w3.org/2000/svg" width="48" height="48" viewBox="0 0 48 48" fill="none">
  <rect width="48" height="48" rx="12" fill="#FFFFFF"/>
  <path
    d="M24 8c5.8 5.4 8.9 10.1 8.9 15.3 0 6.1-4.3 10.7-8.9 10.7s-8.9-4.6-8.9-10.7C15.1 18.1 18.2 13.4 24 8Z"
    fill="#F77F00"
  />
  <path
    d="M24 15.2c3.7 3.5 5.6 6.5 5.6 9.7 0 3.9-2.7 6.7-5.6 6.7s-5.6-2.8-5.6-6.7C18.4 21.7 20.3 18.7 24 15.2Z"
    fill="#FCBF49"
  />
  <path
    d="M24 20.6c2.1 2.1 3.2 3.9 3.2 5.8 0 2.3-1.6 4-3.2 4s-3.2-1.7-3.2-4c0-1.9 1.1-3.7 3.2-5.8Z"
    fill="#D62828"
  />
</svg>